<?xml version="1.0" encoding="iso-8859-1"?>
<!-- Generator: Adobe Illustrator 16.0.0, SVG Export Plug-In . SVG Version: 6.00 Build 0)  -->
<!DOCTYPE svg PUBLIC "-//W3C//DTD SVG 1.1//EN" "http://www.w3.org/Graphics/SVG/1.1/DTD/svg11.dtd">
<svg version="1.1" id="Capa_1" xmlns="http://www.w3.org/2000/svg" xmlns:xlink="http://www.w3.org/1999/xlink" x="0px" y="0px"
	 width="188.081px" height="188.081px" viewBox="0 0 188.081 188.081" style="enable-background:new 0 0 188.081 188.081;"
	 xml:space="preserve">
<g>
	<path d="M186.128,89.16c0.978-2.696,1.644-5.659,1.942-8.968c0.064-0.702-0.164-1.201-0.526-1.548
		c-0.397-2.048-3.205-2.885-4.943-1.986c-2.86,1.478-5.473,3.097-8.037,4.842c-0.401-8.324-1.661-15.912-6.044-23.62
		c-1.382-2.429-4.511-1.539-5.412,0.707c-0.855,1.593-1.84,3.081-2.931,4.483c-1.006-3.82-2.748-6.971-5.607-10.171
		c1.318-4.872,2.575-11.504-0.82-15.421c-3.894-4.492-10.807-3.53-16.334-2.443c-1.068-2.221-2.211-4.365-2.896-6.79
		c-0.472-1.665-2.496-3.123-4.262-2.419c-5.948,2.37-12.032,6.234-14.566,11.97c-5.48-5.318-15.051-5.079-22.586-4.235
		c-0.551-0.612-1.323-1.016-2.202-1.006c-9.804,0.106-17.668,3.749-24.918,9.502c-0.021-2.144-0.033-4.282,0.196-6.483
		c0.23-2.22-2.456-3.208-4.122-2.366c-7.687,3.883-11.31,10.698-16.642,17.118c-5.894,7.096-20.166,3.604-28.329,7.397
		c-1.664,0.773-1.983,3.494-0.601,4.667c2.411,2.046,4.756,3.895,7.237,5.622C13.244,72.017,3.999,79.44,0.76,90.537
		c-0.7,2.396,1.66,4.758,4.057,4.057c2.266-0.663,4.501-1.17,6.751-1.604c-5.087,9.433-9.351,18.881-11.508,29.645
		c-0.49,2.442,2.097,5.092,4.517,3.473c4.368-2.922,8.347-5.131,12.892-7.004c-3.964,13.026-3.241,27.879,7.13,37.697
		c1.877,1.778,4.361,0.764,5.263-1.389c2.23-5.327,4.05-9.852,7.207-14.169c2.692,6.058,4.321,12.128,5.811,18.782
		c0.456,2.037,3.086,3.061,4.827,1.963c6.28-3.955,10.873-8.639,14.532-14.539c6.241,9.654,20.278,12.301,31.409,11.031
		c1.008-0.114,1.736-0.554,2.216-1.136c1.491-0.944,1.823-3.29,0.539-4.716c-0.392-2.697-0.784-5.396-1.177-8.094
		c4.119,4.078,7.212,8.835,9.612,14.271c0.661,1.498,2.742,1.756,4.026,1.057c4.766-2.603,8.047-6.991,9.595-11.996
		c11.441,6.392,27.451,4.988,39.358,1.211c2.7-0.856,3.475-3.977,1.914-5.989c2.116,2.5,3.956,5.349,6.21,7.849
		c0.556,0.616,1.242,0.81,1.912,0.758c1.113,0.523,2.671-0.035,2.83-1.695c0.932-9.723,1.173-18.841-0.858-28.041
		c3.077,1.652,6.115,3.371,9.199,5.124c1.931,1.099,3.847-0.019,4.617-1.878c0.137-0.331,0.26-0.625,0.382-0.919
		c0.914-0.329,1.645-1.158,1.611-2.231c-0.017-0.515-0.097-0.971-0.14-1.461c0.729-2.208,0.335-3.025-0.421-7.947
		c0.058,0.369-5.925-9.184-4.924-10.234C183.478,98.917,185.123,94.091,186.128,89.16z M135.591,45.636
		c3.54-3.344,7.449-3.752,11.771-4.45c1.356,6.27-0.193,11.816-1.028,17.991c-0.224,0.448-0.447,0.896-0.672,1.344
		c-1.445-4.508-3.875-8.501-7.502-11.37c-1.596-1.263-3.223-2.12-4.861-2.717C134.125,46.468,134.981,46.211,135.591,45.636z
		 M97.732,100.786c0.975-2.369,2.229-4.642,3.778-6.815c1.478-1.872,0.671-4.797-2.006-4.842
		c-11.736-0.196-20.602,4.854-27.261,13.717c-1.835-2.939-3.834-5.775-4.968-9.117c-0.795-2.343-4.646-3.521-5.86-0.766
		c-0.833,1.889-1.591,3.405-2.256,4.85c-5.143-10.821-8.284-28.508,4.978-33.421c19.762-7.322,34.724,16.81,41.602,32.097
		C102.986,97.693,100.327,99.085,97.732,100.786z M128.665,38.982c0.535,2.05,1.292,4.011,2.321,6.061
		c0.209,0.416,0.515,0.724,0.865,0.956c-4.096-1.043-8.254-0.292-12.285,1.585C121.453,43.799,124.864,41.131,128.665,38.982z
		 M133.532,55.955c9.021,7.134,6.719,25.701,1.394,34.673c-4.709,1.709-9.312,5.132-13.366,8.508
		c0.164-0.813,0.264-1.633,0.496-2.438c0.476-1.738-0.928-4.07-2.928-3.842c-3.016,0.343-5.759,1.004-8.405,1.808
		c-1.301-7.896-4.954-15.967-10.151-22.781C108.381,63.873,123.963,48.386,133.532,55.955z M113.631,45.518
		c-2.123-2.586-4.677-4.595-7.561-6.22C109.66,40.329,111.705,42.244,113.631,45.518z M62.167,55.936
		c4.841-4.758,9.892-8.782,15.812-12.168c10.394-5.945,10.597,0.916,9.364,9.793c-0.25,1.804,2.251,3.31,3.218,1.357
		c2.213-4.475,4.794-8.505,6.394-13.243c2.127-6.298,11.635,6.81,14.822,10.854c-5.683,4.557-10.76,10.511-14.501,15.428
		c-9.204-9.903-21.988-15.814-35.443-11.775C61.943,56.099,62.061,56.041,62.167,55.936z M176.863,95.428
		c-2.289,2.041-5.137,3.696-8.599,4.924c-1.608,0.623-2.317,2.988-0.516,3.939c4.259,1.723,7.476,4.531,9.731,8.342
		c0.385,1.252,0.615,2.564,0.711,3.93c-4.829-2.482-9.636-4.474-15.293-5.851c-1.927-0.469-3.554,1.565-2.556,3.325
		c3.954,6.979,4.725,13.986,4.746,21.324c-6.763-8.693-16.359-12.869-28.424-9.584c-1.156,0.314-2.271,1.543-2.143,2.814
		c0.707,6.965,3.021,11.659,7.128,14.657c-10.455,0.024-19.205-5.295-26.961-14.144c-1.884-2.149-4.836-0.23-5.075,2.103
		c-0.605,5.901-2.127,10.874-4.048,15.989c-4.276-6.381-9.94-11.045-16.473-15.701c-1.351-0.963-3.663-0.018-3.961,1.611
		c-1.308,7.155-0.205,12.564,2.903,17.926c-10.301-1.775-18.101-6.688-22.215-18.021c-0.869-2.395-4.173-3.157-5.579-0.729
		c-3.687,6.37-7.763,11.054-13.44,15.098c-0.921-7.106-2.929-13.591-6.351-20.21c-0.808-1.562-3.241-1.879-4.418-0.568
		c-4.41,4.906-7.479,9.914-9.994,15.557c-3.529-10.027-1.57-20.373,0.301-31.137c0.318-1.83-1.265-4.362-3.454-3.453
		c-4.665,1.936-8.917,4.015-12.976,6.57c3.243-9.572,8.846-17.547,15.57-25.562c1.781-2.123,0.051-4.72-2.542-4.367
		c-3.322,0.453-6.46,0.67-9.577,0.991c6.615-5.835,14.1-10.099,22.262-14.176c1.651-0.825,2.056-3.535,0.611-4.745
		c-1.956-1.638-3.82-3.338-5.698-5.018c3.956-0.357,7.822-0.293,11.965-0.029c0.567,1.555,3.071,2.244,3.952,0.439
		c2.795-5.729,6.084-10.147,10.703-13.816c0.043,1.997,0.203,3.983,0.409,6.17c0.141,1.498,1.328,2.597,2.633,2.674
		c-0.06,0.022-0.119,0.035-0.179,0.057c-18.759,6.869-14.128,30.239-5.282,43.78c-6.926-2.21-16.003-4.115-16.405-0.725
		c0.021-0.178-0.157-0.295-0.308-0.309c-0.162-0.014-0.324-0.027-0.486-0.043c-0.472-0.041-0.868,0.512-0.721,0.946
		c0.307,0.909,0.886,1.661,1.631,2.315c-1.113,0.991-1.138,3.166,0.661,3.437c7.357,1.104,13.897,2.755,20.759,5.647
		c1.19,0.502,2.978-0.302,3.518-1.432c0.515-1.079,0.896-1.891,1.221-2.617c1.844,2.038,3.756,4.003,5.681,6.102
		c1.252,1.365,3.338,1.146,4.619,0c5.272-4.717,10.692-8.644,16.645-12.047c-0.445,1.59-0.848,3.252-1.246,5.113
		c-0.242,1.127,0.33,2.357,1.227,3.049c0.012,0.221,0.007,0.436,0.023,0.659c0.168,2.488,3.225,4.159,5.141,2.13
		c4.744-5.022,9.858-7.201,15.9-8.938c0.134,1.385,0.364,2.595,0.872,4.908c0.403,1.844,3.067,3.131,4.674,1.9
		c9.439-7.228,18.77-13.25,31.348-12.387c3.545,0.243,4.395-5.729,0.844-6.238c-0.812-0.116-1.609-0.195-2.398-0.255
		c-1.464-0.976-2.959-1.61-4.472-1.941c3.076-6.713,4.488-15.163,3.558-22.949c0.009-0.016,0.021-0.022,0.031-0.039
		c0.568-1.138,1.149-2.236,1.728-3.338c0.299-0.146,0.572-0.35,0.755-0.665c0.788-1.352,1.372-2.786,1.868-4.251
		c0.227,0.479,0.454,0.96,0.681,1.44c1.176,5.422,0.629,10.359-0.159,16.251c-0.316,2.362,2.882,3.103,4.315,1.788
		c3.509-3.218,6.592-5.936,9.173-9.401c1.528,7.283,0.881,14.423-0.13,22.003c-0.206,1.542,1.582,2.44,2.849,2.17
		c4.38-0.933,7.974-2.099,11.16-3.921C178.708,91.154,177.935,93.324,176.863,95.428z"/>
</g>
<g>
</g>
<g>
</g>
<g>
</g>
<g>
</g>
<g>
</g>
<g>
</g>
<g>
</g>
<g>
</g>
<g>
</g>
<g>
</g>
<g>
</g>
<g>
</g>
<g>
</g>
<g>
</g>
<g>
</g>
</svg>
